<svg width="150" height="100" viewBox="0 0 524 241" fill="none" xmlns="http://www.w3.org/2000/svg">
<g id="Vector">
<path d="M369 95C369 147.467 326.467 190 274 190C221.533 190 179 147.467 179 95C179 42.5329 221.533 0 274 0C326.467 0 369 42.5329 369 95Z" fill="#E4F61E" fill-opacity="0.81"/>
<path d="M433.833 220.04C418.177 233.003 396.698 241 373 241C349.302 241 327.823 233.003 312.167 220.04C304.241 223.168 295.475 224.906 286.255 224.906C250.768 224.906 222 199.171 222 167.425C222 135.68 250.768 109.945 286.255 109.945C295.842 109.945 304.939 111.823 313.11 115.191C328.68 102.682 349.774 95 373 95C396.226 95 417.319 102.682 432.89 115.191C441.061 111.823 450.158 109.945 459.745 109.945C495.232 109.945 524 135.68 524 167.425C524 199.171 495.232 224.906 459.745 224.906C450.525 224.906 441.759 223.168 433.833 220.04Z" fill="#76F3F3" fill-opacity="0.67"/>
<path d="M211.833 191.04C196.177 204.003 174.698 212 151 212C127.302 212 105.823 204.003 90.1672 191.04C82.2412 194.168 73.475 195.906 64.2553 195.906C28.7681 195.906 0 170.171 0 138.425C0 106.68 28.7681 80.9449 64.2553 80.9449C73.8423 80.9449 82.9388 82.8231 91.1103 86.1905C106.68 73.6816 127.774 66 151 66C174.226 66 195.319 73.6816 210.89 86.1905C219.061 82.8231 228.158 80.9449 237.745 80.9449C273.232 80.9449 302 106.68 302 138.425C302 170.171 273.232 195.906 237.745 195.906C228.525 195.906 219.759 194.168 211.833 191.04Z" fill="#76F3F3" fill-opacity="0.67"/>
</g>
</svg>
